<svg t="1661236703819" class="icon" viewBox="0 0 1024 1024" version="1.1" xmlns="http://www.w3.org/2000/svg" p-id="9329" width="200" height="200"><path d="M850.1 657.7c12.9 0 24.7-5.3 33.2-13.8s13.8-20.3 13.8-33.2v-92.2c0-12.9-5.3-24.6-13.9-33.2l0.1-0.1c-8.5-8.5-20.3-13.8-33.2-13.8h-32v-13.5c0-11.9-9.7-21.6-21.6-21.6H554c-11.9 0-21.6 9.7-21.6 21.6v183.3c0 10.5 2.2 20.4 6.2 29.3h-50.1l0.2-403.3 112.4 0.1v51.2c0 11.9 9.7 21.6 21.6 21.6h105.1c12 0 21.6-9.7 21.6-21.6v-51.1h113.1c11.9 0 21.5-9.6 21.5-21.5v-82.4c0-18.9-7.7-36-19.9-48.3-12.4-12.4-29.5-20-48.4-20.1l-620.1-0.3c-18.8 0-35.9 7.7-48.3 20-12.4 12.4-20.1 29.5-20.1 48.4l-0.3 667.2c0 18.8 7.7 35.9 20 48.3 12.4 12.4 29.5 20.1 48.3 20.1l18.5 0.1c-0.5 2.8-0.7 5.7-0.7 8.6 0 11.9 9.7 21.6 21.6 21.6 11.9 0 21.6-9.7 21.6-21.6 0-2.3 0.9-4.4 2.4-5.9v-0.1c1.5-1.5 3.5-2.4 5.9-2.4 1.2 0 2.3-0.1 3.5-0.3l476.7 0.2c0.5 0.1 1.1 0.1 1.7 0.1 2.3 0 4.4 0.9 5.9 2.5 1.5 1.5 2.4 3.6 2.4 5.9 0 11.9 9.7 21.6 21.6 21.6 11.9 0 21.6-9.7 21.6-21.6 0-2.9-0.2-5.7-0.7-8.4h18.1c18.8 0 35.9-7.6 48.3-19.9 12.4-12.4 20.1-29.5 20.1-48.3l0.1-138.7c0-11.9-9.6-21.5-21.5-21.5h-50.4c1.8-4.1 3.3-8.4 4.4-12.9h33.8z m-31.9-143.1h32c1 0 2 0.4 2.7 1.2h0.1c0.6 0.6 1 1.6 1 2.7v92.2c0 1-0.4 2-1.1 2.7-0.7 0.7-1.7 1.1-2.7 1.1h-32v-99.9z m-242.6-35.1H775v161.7c0 8.1-3.3 15.4-8.6 20.7-5.3 5.3-12.6 8.6-20.7 8.6H604.8c-8 0-15.4-3.3-20.7-8.6-5.3-5.3-8.6-12.7-8.6-20.7V479.5z m130.7-182.6h-62v-29.5h62v29.5z m134.4 416.8v117.2c0 6.9-2.9 13.3-7.5 17.9-4.6 4.6-11 7.4-17.9 7.4h-65.5c-1.2-0.1-2.3-0.1-3.4-0.1-0.7 0-1.5 0-2.2 0.1l-549-0.2c-6.9-0.1-13.3-2.9-17.9-7.5-4.6-4.6-7.5-11-7.5-17.9l0.3-667.2c0-6.9 2.8-13.3 7.4-17.9 4.6-4.7 11-7.5 17.9-7.5l620.1 0.3c6.9 0 13.3 2.9 17.9 7.5 4.6 4.6 7.5 11 7.5 17.9v60.9l-111-0.1c-0.7 0-1.4-0.1-2.2-0.1h-105c-0.6 0-1.2 0-1.7 0.1l-153.7-0.1c-11.9 0-21.5 9.6-21.5 21.5l-0.3 446.2c0 11.9 9.6 21.5 21.5 21.5l133.8 0.1c1.4 0.1 2.7 0.2 4 0.2h140.8c1 0 2 0 3-0.1l92.1-0.1z" fill="#1E1E1E" p-id="9330"></path><path d="M382 617.8c-19.1-19-45.3-30.7-74.2-30.7-29 0-55.2 11.8-74.2 30.7-19 19-30.8 45.3-30.8 74.3 0 28.3 11.3 54 29.6 72.9l1.2 1.3c19 19 45.2 30.7 74.2 30.7 28.9 0 55.1-11.8 74.2-30.7l0.1-0.1c19-19 30.7-45.2 30.7-74.1 0-29-11.8-55.3-30.8-74.3z m-30.4 118c-11.2 11.1-26.6 18-43.8 18-17.1 0-32.5-6.9-43.7-18.1l-1-0.9C252.5 723.7 246 708.7 246 692c0-17.1 6.9-32.6 18.1-43.8 11.2-11.2 26.6-18.1 43.7-18.1s32.6 6.9 43.7 18.1v0.1c11.2 11.2 18.1 26.7 18.1 43.8 0 17-6.9 32.5-18 43.7z" fill="#1E1E1E" p-id="9331"></path></svg>