<?xml version="1.0" standalone="no"?><!DOCTYPE svg PUBLIC "-//W3C//DTD SVG 1.1//EN" "http://www.w3.org/Graphics/SVG/1.1/DTD/svg11.dtd"><svg t="1661233758516" class="icon" viewBox="0 0 1024 1024" version="1.1" xmlns="http://www.w3.org/2000/svg" p-id="4411" xmlns:xlink="http://www.w3.org/1999/xlink" width="200" height="200"><defs><style type="text/css"></style></defs><path d="M243.557107 778.562976c-99.697234-78.031962-91.037289-221.059741-91.037289-221.059741H102.563337a291.048124 291.048124 0 0 0-4.74602 50.757758c0 188.79297 164.384868 283.805821 367.16935 283.80582s367.16935-95.043669 367.169351-283.80582c0-17.87462-1.910735-34.608963-4.74602-50.757758H197.976826s-10.75559 110.514461 45.580281 221.059741z" p-id="4412"></path><path d="M1015.124327 518.055798c-23.853372-35.74924-34.670599-195.049087-34.6706-195.049087s18.42935-206.975773-111.654738-184.231859c-99.142505 17.350709-151.564451 7.427213-170.949168 1.725825a26.103109 26.103109 0 0 0-8.968128-3.143468L123.982063 50.665302a26.041472 26.041472 0 0 0-18.768351 47.05956l113.781202 78.925693v111.778012C81.206248 347.383995 0 460.363921 0 608.291811c0 221.922653 182.506034 365.320252 464.955849 365.320251s464.955849-143.397598 464.955849-365.320251c0-146.880067-80.096789-259.212809-216.067174-318.445602 54.918229-41.666356 171.442261-115.168026 199.394468-13.405965 36.858699 134.367833 34.670599 195.049087 82.346526 277.395612 13.066964 10.817227 43.361363 0 19.538809-35.780058zM271.016222 267.102296V163.090499a26.010654 26.010654 0 0 0-11.187047-21.357089l-32.513317-22.589822 431.610437 66.228549v81.699341H279.61453l-8.598308 0.030818z m606.874168 341.189515c0 151.441177-108.480453 313.298944-412.903723 313.298944-304.484907 0-412.965359-161.857766-412.965359-313.298944 0-116.277485 64.102086-238.626178 231.630421-289.199025h362.639059c167.528335 50.572847 231.599603 172.92154 231.599602 289.199025z" p-id="4413"></path></svg>